<svg width="20" height="20" viewBox="0 0 20 20" fill="none" xmlns="http://www.w3.org/2000/svg">
<path d="M10.4126 10.1166V7.08331H9.57926V10.1166C9.32843 10.2633 9.1626 10.5316 9.1626 10.8383C9.1626 11.2983 9.53593 11.6716 9.99593 11.6716C10.4559 11.6716 10.8293 11.2983 10.8293 10.8383C10.8293 10.5316 10.6634 10.2633 10.4168 10.1191L10.4126 10.1166Z" fill="black" fill-opacity="0.5"/>
<path d="M9.99593 5C6.77426 5 4.1626 7.61167 4.1626 10.8333C4.1626 14.055 6.77426 16.6667 9.99593 16.6667C13.2176 16.6667 15.8293 14.055 15.8293 10.8333C15.8293 7.61167 13.2176 5 9.99593 5ZM9.99593 15.4167C7.46426 15.4167 5.4126 13.365 5.4126 10.8333C5.4126 8.30167 7.46426 6.25 9.99593 6.25C12.5276 6.25 14.5793 8.30167 14.5793 10.8333C14.5743 13.3625 12.5251 15.4117 9.99676 15.4167H9.99593Z" fill="black" fill-opacity="0.5"/>
<path d="M8.3291 3.33331H11.6624V4.58331H8.3291V3.33331Z" fill="black" fill-opacity="0.5"/>
<path d="M3.33325 7.03169L5.59409 4.58252L6.51242 5.43002L4.25159 7.87919L3.33325 7.03169Z" fill="black" fill-opacity="0.5"/>
<path d="M13.4841 5.43246L14.4025 4.58496L16.6633 7.03413L15.745 7.88163L13.4841 5.43246Z" fill="black" fill-opacity="0.5"/>
</svg>
