<svg width="20" height="20" viewBox="0 0 20 20" fill="none" xmlns="http://www.w3.org/2000/svg">
<path d="M7.74992 10.6666C7.41659 10.6666 6.99992 10.4999 6.99992 10.1666C6.99992 9.83327 7.41659 9.91661 7.74992 9.33327C7.74992 9.33327 9.24992 5.24994 6.24992 5.24994C3.24992 5.24994 4.74992 9.33327 4.74992 9.33327C5.08325 9.91661 5.49992 9.83327 5.49992 10.1666C5.49992 10.4999 5.08325 10.6666 4.74992 10.6666C4.24992 10.7499 3.83325 10.6666 3.33325 11.1666V15.9166H7.49992C7.66659 14.4999 8.08325 11.5833 8.41659 10.8333L8.49992 10.7499C8.33325 10.6666 8.08325 10.6666 7.74992 10.6666V10.6666Z" fill="black" fill-opacity="0.5"/>
<path d="M16.6666 10.5C16.0833 9.83331 15.5833 9.91665 14.9999 9.83331C14.5833 9.74998 14.0833 9.66665 14.0833 9.24998C14.0833 8.83331 14.5833 8.99998 14.9999 8.24998C14.9999 8.24998 16.7499 3.33331 13.1666 3.33331C9.49992 3.41665 11.2499 8.33331 11.2499 8.33331C11.6666 8.99998 12.1666 8.91665 12.1666 9.24998C12.1666 9.66665 11.6666 9.74998 11.2499 9.83331C10.4999 9.91665 9.83325 9.83331 9.16659 11.0833C8.83325 11.8333 8.33325 15.9166 8.33325 15.9166H16.6666V10.5V10.5Z" fill="black" fill-opacity="0.5"/>
</svg>
